<svg width="165" height="160" viewBox="0 0 165 160" fill="none" xmlns="http://www.w3.org/2000/svg">
<path d="M34.1702 26.781C34.1462 19.1388 33.327 10.8763 39.2217 4.9449C44.4636 -0.329704 51.9794 0.0509224 58.7679 0.0617974L69.5661 0.0876252L94.6726 0.0960086C100.362 0.0826414 106.264 -0.177228 111.92 0.218804C146.175 2.61674 162.766 37.1304 143.368 65.4063C142.352 66.8875 141.409 68.309 140.237 69.7039C137.934 73.2209 130.328 80.0384 126.677 83.0249C109.148 97.3647 86.3723 107.188 64.081 110.929C55.9775 112.29 42.343 112.367 34.1435 111.558C33.8909 105.19 34.0087 98.3829 33.9998 91.9732L33.9953 60.5762L34.0316 40.0526C34.0268 36.0417 33.9051 30.71 34.1702 26.781Z" fill="black"/>
<path d="M36.3219 97.1295C34.6056 100.326 33.0929 107.729 31.7791 111.26C39.9786 112.069 53.6756 112.722 61.7791 111.362C84.0703 107.62 107.749 98.7018 125.279 84.362C129.183 81.1683 136.977 74.3789 139.279 70.862C138.025 69.5592 132.469 66.6394 130.645 65.9183C98.0175 53.0196 53.4169 65.2896 36.3219 97.1295Z" fill="#B8B8B8"/>
<path d="M145.912 73.4615C146.421 73.538 148.953 76.2119 149.467 76.6879C155.733 82.4925 161.24 91.4811 163.326 99.7448C166.329 111.839 164.435 124.629 158.058 135.334C151.438 146.383 139.304 154.704 126.856 157.614C117.213 159.867 108.582 159.5 98.7858 159.533L74.2002 159.614L59.2316 159.604C48.174 159.578 38.0514 159.632 34.5159 146.706C33.2603 142.116 34.0857 137.705 33.5925 133.082C33.5295 132.491 33.2252 132.359 32.7902 132.121C15.9654 125.561 10.8599 120.171 0 106.493C2.68334 108.089 5.44343 110.53 8.27728 112.123C18.0111 117.585 28.2735 120.245 39.3551 121.442C64.9029 124.213 90.5396 115.774 112.446 103.113C118.286 99.7377 124.61 94.1366 129.848 89.8601C133.091 87.2129 136.405 83.49 139.389 80.4786C141.671 78.1749 143.306 75.6204 145.912 73.4615Z" fill="#9A9A9A"/>
</svg>
