<svg width="850" height="317" viewBox="0 0 850 317" fill="none" xmlns="http://www.w3.org/2000/svg">
<path d="M131.496 45.5726C163.232 43.3028 200.045 57.6607 223.562 78.6278C263.461 114.33 278.639 170.158 262.307 221.145C255.386 242.82 237.642 263.02 251.176 286.147C272.632 322.818 244.195 315.415 216.123 315.403L151.889 315.36C142.119 315.379 129.993 315.666 120.539 314.546C93.4141 311.337 66.9968 299.428 46.4919 281.512C18.8139 257.657 2.09497 223.521 0.217029 187.027C-1.83787 152.824 10.8038 116.624 33.7083 91.1231C60.1476 61.6866 92.3713 47.7377 131.496 45.5726ZM151.276 296.293L234.662 296.311C228.483 284.053 225.826 273.583 227.374 259.726C229.117 244.118 237.07 233.52 242.437 219.277C253.68 189.403 251.856 156.179 237.411 127.716C224.033 100.599 200.312 80.0013 171.586 70.5601C156.759 65.786 141.137 63.9809 125.612 65.249C92.5091 68.8175 65.0276 82.767 44.0856 108.919C24.9449 132.946 16.2453 163.649 19.9375 194.148C23.7969 224.482 39.5043 252.054 63.6279 270.846C92.6107 293.323 116.254 296.55 151.276 296.293Z" fill="#ff7a1a"/>
<path d="M215.372 181.859C225.677 182.343 227.688 189.978 220.891 196.665C212.076 205.341 202.65 213.589 193.619 222.1L164.996 248.999C159.948 253.719 154.932 258.502 149.621 262.935C130.507 278.885 113.561 258.612 99.2911 246.151C94.6847 242.478 88.1888 236.716 91.303 230.691C96.6539 220.337 108.85 233.63 112.938 237.157C119.383 242.716 123.446 247.407 130.73 251.068C133.531 252.476 137.157 251.178 139.635 249.85C145.962 245.992 151.123 239.802 156.669 234.885C166.142 226.827 208.191 184.817 215.372 181.859Z" fill="#111827"/>
<path d="M106.448 134.261C116.059 134.059 175.246 132.68 180.567 135.988C182.689 137.307 183.824 139.402 184.215 141.829C184.615 144.298 184.428 146.941 182.87 148.982C181.201 151.17 179.032 152.156 176.38 152.554C165.593 152.836 107.328 154.006 102.135 151.471C99.9537 150.406 98.3917 148.213 97.6973 145.925C97.0128 143.67 97.2252 141.266 98.3911 139.203C100.183 136.034 103.102 135.06 106.448 134.261Z" fill="#ff7a1a"/>
<path d="M89.394 180.794C98.7751 180.286 157.507 179.49 162.977 181.694C165.125 182.558 166.774 184.517 167.597 186.642C168.481 188.925 168.319 191.369 167.279 193.573C165.909 196.475 163.709 197.522 160.832 198.594C149.958 199.059 90.896 200.302 85.3706 197.241C83.2991 196.096 82.0298 194.093 81.5167 191.816C80.9981 189.519 81.0777 186.642 82.4309 184.633C84.13 182.111 86.556 181.37 89.394 180.794Z" fill="#ff7a1a"/>
<path d="M477.365 124.378C488.693 123.621 489.942 126.017 495.569 135.452C499.629 142.25 503.786 149.211 507.858 156.014L544.915 218.047C556.714 197.92 568.758 177.941 581.053 158.108C587.109 148.218 592.968 138.242 599.508 128.617C603.476 122.231 618.097 122.586 619.438 130.815C620.308 136.194 619.977 144.283 619.965 149.906L619.922 183.035L619.855 236.214C619.836 243.604 619.824 251.319 619.977 258.691C620.228 270.521 603.818 270.717 603.678 259.12C603.567 249.825 603.714 240.463 603.708 231.15L603.696 167.458L603.806 150.435C598.583 159.657 553.787 234.726 550.309 237.022C548.16 238.442 545.447 238.994 542.931 238.412C540.482 237.849 538.688 236.477 537.163 234.518C531.101 226.723 526.209 216.932 521.066 208.44C509.468 189.115 497.767 169.858 485.962 150.668C486.966 166.295 486.097 192.189 486.134 208.703L486.17 241.626C486.182 247.131 488.638 269.615 478.29 267.882C471.15 266.694 470.22 262.549 470.195 256.12C470.048 217.281 470.122 178.412 470.14 139.572C470.14 131.025 469.534 128.563 477.365 124.378Z" fill="#111827"/>
<path d="M686.155 166.136C715.392 163.392 737.827 182.343 739.621 211.765C739.829 217.508 737.894 221.843 731.477 222.18C723.309 222.608 715.006 222.4 706.814 222.388L657.187 222.339C658.056 228.756 659.036 233.312 662.465 238.963C667.381 246.886 675.28 252.495 684.379 254.516C695.578 257.106 706.097 254.908 715.753 248.95C717.554 247.535 720.125 244.982 722.079 243.953C730.492 239.545 736.627 246.709 730.749 254.081C723.86 262.218 714.351 266.094 704.107 268.182C655.239 278.138 623.822 225.652 650.88 185.791C658.858 174.034 672.102 168.199 686.155 166.136ZM657.364 210.007H695.156L724.265 210.032C721.05 189.489 708.871 178.069 687.416 179.576C669.831 183.372 660.536 191.877 657.364 210.007Z" fill="#111827"/>
<path d="M363.288 124.461C387.335 123.922 412.651 124.791 436.757 124.993C444.515 125.058 446.615 136.791 437.988 139.196C432.165 140.823 426.752 140.186 420.751 140.137L387.245 139.909C359.059 139.748 356.38 139.084 357.388 169.05C357.58 174.8 357.488 181.541 357.544 187.382C368.08 187.333 426.091 185.864 430.83 188.638C432.575 189.66 433.898 191.803 434.253 193.781C434.608 195.771 433.977 198.514 432.55 200.002C431.32 201.288 429.911 201.968 428.179 202.231C420.237 203.431 411.438 202.647 403.366 202.629L357.409 202.61L357.455 211.207C357.376 220.22 355.789 237.04 358.394 245.074C359.33 247.97 360.978 249.758 363.793 250.921C369.455 253.254 377.324 252.354 383.36 252.33C391.815 252.293 433.518 250.327 439.678 253.597C441.472 254.546 442.825 256.01 443.37 258C443.927 260.032 443.358 262.371 442.219 264.11C441.068 265.88 439.347 266.768 437.326 267.166C428.289 268.935 413.269 267.472 403.659 267.466C390.92 267.453 373.987 268.862 361.719 267.276C357.655 266.749 353.694 265.549 350.289 263.216C344.859 259.487 342.101 253.695 341.092 247.327C339.404 236.673 340.696 216.479 340.687 204.851L340.665 168.664C340.661 148.093 337.17 128.403 363.288 124.461Z" fill="#111827"/>
<path d="M765.142 167.752C770.953 167.783 774.48 170.03 774.878 176.018C775.466 192.263 775.374 208.764 775.202 225.076C774.957 248.619 794.067 261.128 816.117 252.575C835.545 245.037 835.845 226.925 835.735 209.395L835.508 184.976C835.459 179.759 834.4 169.105 841.313 168.242C844.27 167.874 845.77 168.156 848.158 169.871C850.902 174.8 849.787 198.141 849.726 205.268L849.787 241.131C849.83 248.117 850.038 255.14 849.64 262.108C849.316 267.711 841.631 269.443 838.159 265.776C834.822 262.261 835.765 255.263 835.863 250.719C832.165 255.599 828.418 259.885 823.17 263.155C813.3 269.309 800.197 270.699 789.034 267.931C779.06 265.464 770.169 259.524 764.983 250.517C762.246 245.766 760.715 240.524 759.968 235.112C758.927 227.537 758.162 176.716 760.029 172.191C761.034 169.76 762.919 168.848 765.142 167.752Z" fill="#111827"/>
<path d="M172.17 0.163683C177.029 -0.144306 182.941 0.0675438 187.889 0.117753C178.579 19.2725 164.211 30.8267 142.702 32.7603C138.148 33.35 132.005 32.8975 127.466 32.4585C128.791 30.3203 130.198 28.233 131.682 26.2007C142.495 11.5936 154.065 2.89028 172.17 0.163683Z" fill="#0f766e"/>
<path d="M420.617 69.4258L428.497 69.5023C419.845 89.6496 405.484 102.646 383.479 105.296L374.264 105.265C385.495 84.4762 397.398 73.4823 420.617 69.4258Z" fill="#0f766e"/>
</svg>
